<?xml version="1.0" standalone="no"?>
<!DOCTYPE svg PUBLIC "-//W3C//DTD SVG 20010904//EN"
 "http://www.w3.org/TR/2001/REC-SVG-20010904/DTD/svg10.dtd">
<svg version="1.0" xmlns="http://www.w3.org/2000/svg"
 width="260.000000pt" height="260.000000pt" viewBox="0 0 260.000000 260.000000"
 preserveAspectRatio="xMidYMid meet">
<metadata>
Created by potrace 1.14, written by Peter Selinger 2001-2017
</metadata>
<g transform="translate(0.000000,260.000000) scale(0.100000,-0.100000)"
fill="#000000" stroke="none">
<path d="M0 2425 l0 -175 595 0 595 0 0 -85 0 -85 705 0 705 0 0 90 0 90 -705
0 -705 0 0 85 0 85 705 0 705 0 0 85 0 85 -1300 0 -1300 0 0 -175z"/>
<path d="M0 1720 l0 -180 595 0 595 0 0 -85 0 -85 705 0 705 0 0 90 0 90 -705
0 -705 0 0 85 0 85 705 0 705 0 0 90 0 90 -1300 0 -1300 0 0 -180z"/>
<path d="M0 1010 l0 -180 595 0 595 0 0 -90 0 -90 705 0 705 0 0 90 0 90 -705
0 -705 0 0 90 0 90 705 0 705 0 0 90 0 90 -1300 0 -1300 0 0 -180z"/>
<path d="M0 300 l0 -180 595 0 595 0 0 -60 0 -60 705 0 705 0 0 60 0 60 -705
0 -705 0 0 90 0 90 705 0 705 0 0 90 0 90 -1300 0 -1300 0 0 -180z"/>
</g>
</svg>
