<svg width="20" height="20" viewBox="0 0 20 20" fill="none" xmlns="http://www.w3.org/2000/svg">
<g clip-path="url(#clip0_94:23)">
<path fill-rule="evenodd" clip-rule="evenodd" d="M16.9974 5.30369C17.7178 4.84905 18.2706 4.12816 18.53 3.26941C17.8555 3.69142 17.1101 3.99662 16.3148 4.16184C15.6802 3.44621 14.7732 3 13.7694 3C11.8436 3 10.283 4.64699 10.283 6.67811C10.283 6.96647 10.3119 7.24746 10.3718 7.51582C7.47409 7.36217 4.90468 5.89934 3.18342 3.67248C2.88308 4.21762 2.71145 4.84905 2.71145 5.52259C2.71145 6.79809 3.32711 7.92415 4.26307 8.58505C3.69132 8.56611 3.15349 8.39877 2.68251 8.12515V8.1704C2.68251 9.95316 3.8839 11.4402 5.48142 11.777C5.18806 11.8633 4.88073 11.9064 4.56142 11.9064C4.33691 11.9064 4.11739 11.8843 3.90585 11.8412C4.34889 13.3019 5.63708 14.3669 7.16376 14.3953C5.96936 15.3825 4.46563 15.9697 2.83219 15.9697C2.5508 15.9697 2.27241 15.9539 2 15.9192C3.54364 16.9621 5.37665 17.5714 7.34636 17.5714C13.7624 17.5714 17.2688 11.9664 17.2688 7.10538C17.2688 6.94542 17.2668 6.78651 17.2598 6.6297C17.9413 6.11087 18.534 5.4626 19 4.72487C18.3744 5.01744 17.7018 5.21529 16.9974 5.30369Z" fill="white"/>
</g>
<defs>
<clipPath id="clip0_94:23">
<rect width="17" height="14.5714" fill="white" transform="translate(2 3)"/>
</clipPath>
</defs>
</svg>
