<?xml version="1.0" encoding="UTF-8"?><svg width="384px" height="256px" viewBox="0 0 384 256" version="1.1" xmlns="http://www.w3.org/2000/svg" xmlns:xlink="http://www.w3.org/1999/xlink"><title>11</title><g id="11" stroke="none" stroke-width="1" fill="none" fill-rule="evenodd" opacity="0.5"><g transform="translate(1.494163, 0.498054)" id="Group" stroke="#FFFFFF"><rect id="Rectangle" x="0" y="0" width="381.509728" height="254.007782"/><line x1="30.8793774" y1="0.498054475" x2="30.8793774" y2="254.505837" id="Path"/><line x1="137.463035" y1="0.498054475" x2="137.463035" y2="254.505837" id="Path"/><line x1="183.284047" y1="0.498054475" x2="183.284047" y2="254.505837" id="Path"/><line x1="199.22179" y1="0.498054475" x2="199.22179" y2="254.505837" id="Path"/><line x1="97.618677" y1="0.498054475" x2="97.618677" y2="254.505837" id="Path"/><line x1="71.7198444" y1="0.498054475" x2="71.7198444" y2="254.505837" id="Path"/><line x1="245.042802" y1="0.498054475" x2="245.042802" y2="254.505837" id="Path"/><line x1="285.883268" y1="0.498054475" x2="285.883268" y2="254.505837" id="Path"/><line x1="310.785992" y1="0.498054475" x2="310.785992" y2="254.505837" id="Path"/><line x1="351.626459" y1="0.498054475" x2="351.626459" y2="254.505837" id="Path"/><line x1="381.011673" y1="45.8210117" x2="0.498054475" y2="45.8210117" id="Path"/><line x1="381.011673" y1="62.7548638" x2="0.498054475" y2="62.7548638" id="Path"/><line x1="381.011673" y1="88.6536965" x2="0.498054475" y2="88.6536965" id="Path"/><line x1="381.011673" y1="118.536965" x2="0.498054475" y2="118.536965" id="Path"/><line x1="381.011673" y1="137.463035" x2="0.498054475" y2="137.463035" id="Path"/><line x1="381.011673" y1="19.922179" x2="0.498054475" y2="19.922179" id="Path"/><line x1="381.011673" y1="166.350195" x2="0.498054475" y2="166.350195" id="Path"/><line x1="381.011673" y1="235.081712" x2="0.498054475" y2="235.081712" id="Path"/><line x1="381.011673" y1="209.182879" x2="0.498054475" y2="209.182879" id="Path"/><line x1="381.011673" y1="192.249027" x2="0.498054475" y2="192.249027" id="Path"/></g></g></svg>