<?xml version="1.0" encoding="UTF-8"?><svg width="384px" height="256px" viewBox="0 0 384 256" version="1.1" xmlns="http://www.w3.org/2000/svg" xmlns:xlink="http://www.w3.org/1999/xlink"><title>13</title><g id="13" stroke="none" stroke-width="1" fill="none" fill-rule="evenodd" opacity="0.5"><g transform="translate(0.747082, 0.000000)" id="Group" stroke="#FFFFFF"><rect id="Rectangle" x="0.498054475" y="0.498054475" width="381.509728" height="254.007782"/><line x1="30.381323" y1="0.996108949" x2="30.381323" y2="255.003891" id="Path"/><line x1="14.4435798" y1="0.996108949" x2="14.4435798" y2="255.003891" id="Path"/><line x1="96.1245136" y1="0.996108949" x2="96.1245136" y2="255.003891" id="Path"/><line x1="76.2023346" y1="0.996108949" x2="76.2023346" y2="255.003891" id="Path"/><line x1="45.3229572" y1="0.996108949" x2="45.3229572" y2="255.003891" id="Path"/><line x1="61.2607004" y1="0" x2="61.2607004" y2="254.007782" id="Path"/><line x1="286.381323" y1="0.996108949" x2="286.381323" y2="255.003891" id="Path"/><line x1="306.303502" y1="0" x2="306.303502" y2="254.007782" id="Path"/><line x1="322.241245" y1="0" x2="322.241245" y2="254.007782" id="Path"/><line x1="337.182879" y1="0" x2="337.182879" y2="254.007782" id="Path"/><line x1="368.062257" y1="0" x2="368.062257" y2="254.007782" id="Path"/><line x1="352.124514" y1="0.996108949" x2="352.124514" y2="255.003891" id="Path"/><line x1="381.509728" y1="38.3501946" x2="0.996108949" y2="38.3501946" id="Path"/><line x1="381.509728" y1="57.2762646" x2="0.996108949" y2="57.2762646" id="Path"/><line x1="381.509728" y1="77.1984436" x2="0.996108949" y2="77.1984436" id="Path"/><line x1="381.509728" y1="122.023346" x2="0.996108949" y2="122.023346" id="Path"/><line x1="381.509728" y1="97.1206226" x2="0.996108949" y2="97.1206226" id="Path"/><line x1="381.509728" y1="133.976654" x2="0.996108949" y2="133.976654" id="Path"/><line x1="381.509728" y1="18.4280156" x2="0.996108949" y2="18.4280156" id="Path"/><line x1="380.513619" y1="159.875486" x2="0" y2="159.875486" id="Path"/><line x1="381.509728" y1="217.649805" x2="0.996108949" y2="217.649805" id="Path"/><line x1="381.509728" y1="237.571984" x2="0.996108949" y2="237.571984" id="Path"/><line x1="381.509728" y1="198.723735" x2="0.996108949" y2="198.723735" id="Path"/><line x1="381.509728" y1="178.801556" x2="0.996108949" y2="178.801556" id="Path"/></g></g></svg>