<?xml version="1.0" encoding="UTF-8"?><svg width="384px" height="256px" viewBox="0 0 384 256" version="1.1" xmlns="http://www.w3.org/2000/svg" xmlns:xlink="http://www.w3.org/1999/xlink"><title>9</title><g id="9" stroke="none" stroke-width="1" fill="none" fill-rule="evenodd" opacity="0.5"><g transform="translate(1.494163, 0.498054)" id="Group" stroke="#FFFFFF"><rect id="Rectangle" x="0" y="0" width="381.509728" height="254.007782"/><line x1="45.8210117" y1="0.498054475" x2="45.8210117" y2="254.505837" id="Path"/><line x1="131.486381" y1="0.498054475" x2="131.486381" y2="254.505837" id="Path"/><line x1="178.303502" y1="0.498054475" x2="178.303502" y2="254.505837" id="Path"/><line x1="203.206226" y1="0.498054475" x2="203.206226" y2="254.505837" id="Path"/><line x1="90.6459144" y1="0.498054475" x2="90.6459144" y2="254.505837" id="Path"/><line x1="249.027237" y1="0.498054475" x2="249.027237" y2="254.505837" id="Path"/><line x1="289.867704" y1="0.498054475" x2="289.867704" y2="254.505837" id="Path"/><line x1="334.692607" y1="0.498054475" x2="334.692607" y2="254.505837" id="Path"/><line x1="381.011673" y1="38.848249" x2="0.498054475" y2="38.848249" id="Path"/><line x1="381.011673" y1="57.7743191" x2="0.498054475" y2="57.7743191" id="Path"/><line x1="381.011673" y1="76.7003891" x2="0.498054475" y2="76.7003891" id="Path"/><line x1="381.011673" y1="19.922179" x2="0.498054475" y2="19.922179" id="Path"/><line x1="381.011673" y1="179.299611" x2="0.498054475" y2="179.299611" id="Path"/><line x1="381.011673" y1="235.081712" x2="0.498054475" y2="235.081712" id="Path"/><line x1="381.011673" y1="216.155642" x2="0.498054475" y2="216.155642" id="Path"/><line x1="381.011673" y1="198.225681" x2="0.498054475" y2="198.225681" id="Path"/></g></g></svg>